HIERARCHY
ROOT Root
{
  OFFSET 0.0 0.0 0.0
  CHANNELS 6 Xposition Yposition Zposition Zrotation Yrotation Xrotation
  JOINT Hips
  {
    OFFSET 0.0 100.0 0.0
    CHANNELS 6 Xposition Yposition Zposition Zrotation Yrotation Xrotation
    JOINT Spine1
    {
      OFFSET -0.013727 5.003763 -0.053727
      CHANNELS 3 Zrotation Yrotation Xrotation
      JOINT Spine2
      {
        OFFSET -0.0 7.125301 -0.029825
        CHANNELS 3 Zrotation Yrotation Xrotation
        JOINT Chest
        {
          OFFSET -1e-06 7.550063 -0.815971
          CHANNELS 3 Zrotation Yrotation Xrotation
          JOINT Neck1
          {
            OFFSET -0.181677 26.311295 -0.553348
            CHANNELS 3 Zrotation Yrotation Xrotation
            JOINT Neck2
            {
              OFFSET -3e-06 7.709397 2.302585
              CHANNELS 3 Zrotation Yrotation Xrotation
              JOINT Head
              {
                OFFSET -5e-06 6.128916 1.953709
                CHANNELS 3 Zrotation Yrotation Xrotation
                JOINT HeadEnd
                {
                  OFFSET 0.003598 16.065403 -1.835379
                  CHANNELS 3 Zrotation Yrotation Xrotation
                }
                JOINT Jaw
                {
                  OFFSET 0.002637 0.475592 3.094941
                  CHANNELS 3 Zrotation Yrotation Xrotation
                }
                JOINT LeftEye
                {
                  OFFSET 3.206381 5.380205 7.586883
                  CHANNELS 3 Zrotation Yrotation Xrotation
                }
                JOINT RightEye
                {
                  OFFSET -3.22244 5.361869 7.558234
                  CHANNELS 3 Zrotation Yrotation Xrotation
                }
              }
            }
          }
          JOINT LeftShoulder
          {
            OFFSET 1.621652 23.237164 5.113413
            CHANNELS 3 Zrotation Yrotation Xrotation
            JOINT LeftArm
            {
              OFFSET 14.919846 2e-06 -5.502326
              CHANNELS 3 Zrotation Yrotation Xrotation
              JOINT LeftForeArm
              {
                OFFSET 28.739307 0.0 -0.002588
                CHANNELS 3 Zrotation Yrotation Xrotation
                JOINT LeftHand
                {
                  OFFSET 27.093981 -1e-06 0.002609
                  CHANNELS 3 Zrotation Yrotation Xrotation
                  JOINT LeftHandThumb1
                  {
                    OFFSET 2.276482 -1.392045 3.191413
                    CHANNELS 3 Zrotation Yrotation Xrotation
                    JOINT LeftHandThumb2
                    {
                      OFFSET 4.012836 -1.828127 1.641654
                      CHANNELS 3 Zrotation Yrotation Xrotation
                      JOINT LeftHandThumb3
                      {
                        OFFSET 2.798515 0.0 -3e-06
                        CHANNELS 3 Zrotation Yrotation Xrotation
                        JOINT LeftHandThumbEnd
                        {
                          OFFSET 3.180793 -4e-06 4e-06
                          CHANNELS 3 Zrotation Yrotation Xrotation
                        }
                      }
                    }
                  }
                  JOINT LeftHandIndex1
                  {
                    OFFSET 3.247555 -0.531998 2.296169
                    CHANNELS 3 Zrotation Yrotation Xrotation
                    JOINT LeftHandIndex2
                    {
                      OFFSET 6.364578 0.01206 0.1786
                      CHANNELS 3 Zrotation Yrotation Xrotation
                      JOINT LeftHandIndex3
                      {
                        OFFSET 3.662364 0.0 0.0
                        CHANNELS 3 Zrotation Yrotation Xrotation
                        JOINT LeftHandIndex4
                        {
                          OFFSET 2.329242 4e-06 4e-06
                          CHANNELS 3 Zrotation Yrotation Xrotation
                          JOINT LeftHandIndexEnd
                          {
                            OFFSET 2.759615 -0.180537 -0.113024
                            CHANNELS 3 Zrotation Yrotation Xrotation
                          }
                        }
                      }
                    }
                  }
                  JOINT LeftHandMiddle1
                  {
                    OFFSET 3.163495 0.240981 1.000332
                    CHANNELS 3 Zrotation Yrotation Xrotation
                    JOINT LeftHandMiddle2
                    {
                      OFFSET 6.19078 -0.259278 -1.002548
                      CHANNELS 3 Zrotation Yrotation Xrotation
                      JOINT LeftHandMiddle3
                      {
                        OFFSET 4.35652 -4e-06 -1e-06
                        CHANNELS 3 Zrotation Yrotation Xrotation
                        JOINT LeftHandMiddle4
                        {
                          OFFSET 2.996877 -8e-06 0.0
                          CHANNELS 3 Zrotation Yrotation Xrotation
                          JOINT LeftHandMiddleEnd
                          {
                            OFFSET 2.304287 -0.294569 -0.031741
                            CHANNELS 3 Zrotation Yrotation Xrotation
                          }
                        }
                      }
                    }
                  }
                  JOINT LeftHandRing1
                  {
                    OFFSET 2.882643 -0.053652 -0.322543
                    CHANNELS 3 Zrotation Yrotation Xrotation
                    JOINT LeftHandRing2
                    {
                      OFFSET 5.854541 -0.486202 -1.373841
                      CHANNELS 3 Zrotation Yrotation Xrotation
                      JOINT LeftHandRing3
                      {
                        OFFSET 4.350578 0.0 3e-06
                        CHANNELS 3 Zrotation Yrotation Xrotation
                        JOINT LeftHandRing4
                        {
                          OFFSET 2.651321 7e-06 2e-06
                          CHANNELS 3 Zrotation Yrotation Xrotation
                          JOINT LeftHandRingEnd
                          {
                            OFFSET 1.936105 0.077687 -7.1e-05
                            CHANNELS 3 Zrotation Yrotation Xrotation
                          }
                        }
                      }
                    }
                  }
                  JOINT LeftHandPinky1
                  {
                    OFFSET 2.8655 -0.310005 -1.600378
                    CHANNELS 3 Zrotation Yrotation Xrotation
                    JOINT LeftHandPinky2
                    {
                      OFFSET 5.087849 -1.331141 -1.77123
                      CHANNELS 3 Zrotation Yrotation Xrotation
                      JOINT LeftHandPinky3
                      {
                        OFFSET 3.070974 4e-06 0.0
                        CHANNELS 3 Zrotation Yrotation Xrotation
                        JOINT LeftHandPinky4
                        {
                          OFFSET 1.549672 0.0 1e-06
                          CHANNELS 3 Zrotation Yrotation Xrotation
                          JOINT LeftHandPinkyEnd
                          {
                            OFFSET 1.944893 -0.157802 0.057219
                            CHANNELS 3 Zrotation Yrotation Xrotation
                          }
                        }
                      }
                    }
                  }
                }
              }
            }
          }
          JOINT RightShoulder
          {
            OFFSET -1.380118 23.180309 5.214158
            CHANNELS 3 Zrotation Yrotation Xrotation
            JOINT RightArm
            {
              OFFSET -15.037196 1.2e-05 -5.545604
              CHANNELS 3 Zrotation Yrotation Xrotation
              JOINT RightForeArm
              {
                OFFSET -28.736639 2e-06 -0.002597
                CHANNELS 3 Zrotation Yrotation Xrotation
                JOINT RightHand
                {
                  OFFSET -27.133619 -0.0 0.002613
                  CHANNELS 3 Zrotation Yrotation Xrotation
                  JOINT RightHandThumb1
                  {
                    OFFSET -2.274032 -1.383988 3.163127
                    CHANNELS 3 Zrotation Yrotation Xrotation
                    JOINT RightHandThumb2
                    {
                      OFFSET -4.011429 -1.827466 1.640914
                      CHANNELS 3 Zrotation Yrotation Xrotation
                      JOINT RightHandThumb3
                      {
                        OFFSET -2.794935 -4e-06 -3e-06
                        CHANNELS 3 Zrotation Yrotation Xrotation
                        JOINT RightHandThumbEnd
                        {
                          OFFSET -3.183852 4e-06 1e-06
                          CHANNELS 3 Zrotation Yrotation Xrotation
                        }
                      }
                    }
                  }
                  JOINT RightHandIndex1
                  {
                    OFFSET -3.253266 -0.520057 2.282866
                    CHANNELS 3 Zrotation Yrotation Xrotation
                    JOINT RightHandIndex2
                    {
                      OFFSET -6.341917 0.012471 0.178266
                      CHANNELS 3 Zrotation Yrotation Xrotation
                      JOINT RightHandIndex3
                      {
                        OFFSET -3.654871 -8e-06 -0.0
                        CHANNELS 3 Zrotation Yrotation Xrotation
                        JOINT RightHandIndex4
                        {
                          OFFSET -2.327586 0.0 1e-06
                          CHANNELS 3 Zrotation Yrotation Xrotation
                          JOINT RightHandIndexEnd
                          {
                            OFFSET -2.76179 -0.180656 -0.113078
                            CHANNELS 3 Zrotation Yrotation Xrotation
                          }
                        }
                      }
                    }
                  }
                  JOINT RightHandMiddle1
                  {
                    OFFSET -3.168106 0.246593 1.00103
                    CHANNELS 3 Zrotation Yrotation Xrotation
                    JOINT RightHandMiddle2
                    {
                      OFFSET -6.180828 -0.258836 -1.000895
                      CHANNELS 3 Zrotation Yrotation Xrotation
                      JOINT RightHandMiddle3
                      {
                        OFFSET -4.348901 0.0 -0.0
                        CHANNELS 3 Zrotation Yrotation Xrotation
                        JOINT RightHandMiddle4
                        {
                          OFFSET -3.00024 -4e-06 -2e-06
                          CHANNELS 3 Zrotation Yrotation Xrotation
                          JOINT RightHandMiddleEnd
                          {
                            OFFSET -2.30252 -0.29437 -0.031706
                            CHANNELS 3 Zrotation Yrotation Xrotation
                          }
                        }
                      }
                    }
                  }
                  JOINT RightHandRing1
                  {
                    OFFSET -2.88569 -0.067952 -0.308858
                    CHANNELS 3 Zrotation Yrotation Xrotation
                    JOINT RightHandRing2
                    {
                      OFFSET -5.854198 -0.48613 -1.373731
                      CHANNELS 3 Zrotation Yrotation Xrotation
                      JOINT RightHandRing3
                      {
                        OFFSET -4.33881 -4e-06 -0.0
                        CHANNELS 3 Zrotation Yrotation Xrotation
                        JOINT RightHandRing4
                        {
                          OFFSET -2.654903 -4e-06 4e-06
                          CHANNELS 3 Zrotation Yrotation Xrotation
                          JOINT RightHandRingEnd
                          {
                            OFFSET -1.933568 0.077527 -5.2e-05
                            CHANNELS 3 Zrotation Yrotation Xrotation
                          }
                        }
                      }
                    }
                  }
                  JOINT RightHandPinky1
                  {
                    OFFSET -2.866425 -0.342796 -1.584145
                    CHANNELS 3 Zrotation Yrotation Xrotation
                    JOINT RightHandPinky2
                    {
                      OFFSET -5.091371 -1.332055 -1.772385
                      CHANNELS 3 Zrotation Yrotation Xrotation
                      JOINT RightHandPinky3
                      {
                        OFFSET -3.062664 -4e-06 1e-06
                        CHANNELS 3 Zrotation Yrotation Xrotation
                        JOINT RightHandPinky4
                        {
                          OFFSET -1.546529 4e-06 -2e-06
                          CHANNELS 3 Zrotation Yrotation Xrotation
                          JOINT RightHandPinkyEnd
                          {
                            OFFSET -1.945119 -0.157718 0.057211
                            CHANNELS 3 Zrotation Yrotation Xrotation
                          }
                        }
                      }
                    }
                  }
                }
              }
            }
          }
        }
      }
    }
    JOINT LeftLeg
    {
      OFFSET 10.043214 -8.434526 2.595655
      CHANNELS 3 Zrotation Yrotation Xrotation
      JOINT LeftShin
      {
        OFFSET -1e-06 -43.221752 -0.802913
        CHANNELS 3 Zrotation Yrotation Xrotation
        JOINT LeftFoot
        {
          OFFSET 1e-06 -42.155094 -3.481523
          CHANNELS 3 Zrotation Yrotation Xrotation
          JOINT LeftToeBase
          {
            OFFSET 0.0 -5.059472 13.231529
            CHANNELS 3 Zrotation Yrotation Xrotation
            JOINT LeftToeEnd
            {
              OFFSET -0.009607 -1.647619 6.513017
              CHANNELS 3 Zrotation Yrotation Xrotation
            }
          }
        }
      }
    }
    JOINT RightLeg
    {
      OFFSET -10.047278 -8.29526 2.620317
      CHANNELS 3 Zrotation Yrotation Xrotation
      JOINT RightShin
      {
        OFFSET 1e-06 -43.362206 -0.805556
        CHANNELS 3 Zrotation Yrotation Xrotation
        JOINT RightFoot
        {
          OFFSET 2e-06 -42.117393 -3.478398
          CHANNELS 3 Zrotation Yrotation Xrotation
          JOINT RightToeBase
          {
            OFFSET -0.0 -5.079609 13.284196
            CHANNELS 3 Zrotation Yrotation Xrotation
            JOINT RightToeEnd
            {
              OFFSET 0.009532 -1.634378 6.460591
              CHANNELS 3 Zrotation Yrotation Xrotation
            }
          }
        }
      }
    }
  }
}
MOTION
Frames: 4
Frame Time: 0.03333333333333333
0.0 0.0 0.0 0.0 -0.0 0.0 -3.525265 16.573435 -0.664557 13.280204 0.067247 85.759605 -7.884624 0.146367 -8.131485 -2.696992 -0.134466 -6.730711 -11.844214 1.026761 11.014826 5.001487 2.402264 -18.959492 -0.696883 -1.67457 -3.021779 -5.270166 -2.319207 11.371402 7.6e-05 -2.3e-05 6e-06 0.398454 -0.161401 -0.213538 1.342977 -3.866647 -10.601773 -0.558695 3.561325 -10.598131 11.978759 -16.845631 8.258813 -51.835133 -60.162781 12.052037 175.592789 -65.98114 -175.858612 33.653324 -2.023251 72.134377 -5.882105 9.861286 0.702589 -10.936872 -0.360577 7.156204 3e-06 8.774826 -1e-06 -16.421101 18.418982 6.766813 -1.844033 2.498505 -2.507278 -10.163599 4.678944 4.621109 -20.976025 -6e-06 2e-06 -21.226288 2.451694 -3.594 -0.0 -6e-06 0.0 -1.362682 2.240798 -0.746324 -21.334915 0.584906 3.008324 -13.821214 -5e-06 2e-06 -23.887171 -0.249081 -0.839482 -60.78149 2.88575 -1.57543 -0.294025 1.679687 0.833256 -14.218209 0.093213 1.300579 -34.212051 -0.287569 0.967172 -20.033218 0.964535 1.212845 -0.0 1e-06 0.0 -3.440389 0.788233 0.501655 -15.928185 -3.167312 2.999708 -6.338825 -2e-06 1e-06 -18.123447 3.648181 -4.905671 -5e-06 0.0 -2e-06 -18.559984 16.064474 6.680939 30.600731 29.438562 -60.687954 175.067032 58.577103 175.858368 -18.359455 -20.760721 53.598446 2.243542 -5.255038 -3.18016 14.282892 -0.826593 6.952505 -2e-06 -12.690607 -1e-06 16.937433 -17.094162 2.188793 1.665666 -1.955923 -2.8783 4.727799 -4.170588 4.993925 11.020527 4e-06 -2e-06 12.109053 -3.735714 -2.866786 1e-06 -1e-06 -0.0 1.291986 -1.92855 -1.49809 14.800129 0.567469 3.865609 14.242573 -1.341735 -6.660661 19.631966 0.143929 -0.648244 49.557907 -0.335755 -5.868906 0.353029 -1.51115 -0.031941 20.222792 3.684311 2.316632 18.78727 7e-06 1e-06 10.751629 -0.479868 1.397906 -0.0 0.0 -0.0 3.273807 0.305947 -0.580111 21.486814 11.83038 2.266135 8.162928 1e-06 -1e-06 18.399088 -3.798985 -4.940577 3e-06 0.0 -1e-06 8.844314 64.42646 -61.726135 -10.945166 -7.662742 84.201157 -13.191617 6.885984 3.348646 2.33869 -2.245317 -4.927192 0.0 -0.0 1e-06 169.147064 18.56929 173.823685 177.633667 -10.99939 -170.436005 9.775996 30.486515 -16.713531 -1.38595 0.455851 -24.023268 1e-06 1e-06 -2e-06 
0.0 0.0 0.0 0.0 -0.0 0.0 -2.779529 15.927434 -0.193966 12.949879 -0.20553 85.815201 -7.486958 0.147513 -7.996714 -2.784013 -0.078176 -6.83134 -11.271652 0.94212 10.780555 6.584995 1.829175 -19.147329 -0.678822 -2.103333 -3.06232 -5.882514 -2.172117 9.163324 7.7e-05 -2.3e-05 6e-06 0.468401 -0.218712 -0.220517 1.376704 -3.959174 -10.606691 -0.448824 3.536507 -10.519716 12.836929 -16.321108 8.498368 -51.824474 -58.331844 9.82924 174.916428 -63.880623 -175.666977 32.837097 -2.661452 70.49884 -5.882111 9.861293 0.702587 -10.936881 -0.360577 7.156209 2e-06 8.774831 -3e-06 -16.377821 18.317318 6.893259 -1.844034 2.498507 -2.507279 -10.16361 4.678948 4.62111 -20.976044 -6e-06 -1e-06 -21.226307 2.451696 -3.594006 -0.0 -5e-06 0.0 -1.362683 2.2408 -0.746325 -21.33493 0.584908 3.008322 -13.821225 -5e-06 -1e-06 -23.887192 -0.249083 -0.839485 -60.861267 2.908248 -1.467144 -0.294025 1.679688 0.833255 -14.218219 0.093214 1.300579 -34.212078 -0.287569 0.967167 -20.033226 0.964533 1.212844 -0.0 1e-06 0.0 -3.440391 0.788234 0.501656 -15.928201 -3.167314 2.999708 -6.33883 -1e-06 0.0 -18.123461 3.648183 -4.905678 -5e-06 -0.0 -2e-06 -18.614309 14.896788 7.27943 31.744745 33.689949 -56.957863 174.282043 56.438091 175.584885 -18.574612 -22.058062 56.637913 2.243544 -5.25504 -3.180161 14.282907 -0.826589 6.952507 -5e-06 -12.690616 -2e-06 16.864716 -17.212729 2.229939 1.665668 -1.955924 -2.878301 4.727803 -4.170591 4.993925 11.02054 4e-06 -3e-06 12.109063 -3.735715 -2.866787 2e-06 -1e-06 -0.0 1.291987 -1.928551 -1.498091 14.800146 0.567474 3.865608 14.242588 -1.341735 -6.660665 19.63199 0.143931 -0.648244 49.855709 -0.467248 -5.899424 0.353028 -1.511152 -0.03194 20.222818 3.68432 2.316629 18.787296 1.2e-05 -1e-06 10.751639 -0.479865 1.397907 -0.0 0.0 -0.0 3.273811 0.305947 -0.580112 21.486843 11.830392 2.266135 8.162937 3e-06 -2e-06 18.399105 -3.798982 -4.940581 3e-06 1e-06 -1e-06 8.22121 63.029213 -63.250877 -10.269142 -7.728268 79.097435 -12.994335 6.608823 5.350562 2.179894 -2.364932 -5.566938 0.0 -1e-06 2e-06 169.172363 10.546367 173.779739 178.41188 -0.182655 -170.557739 10.325196 32.678295 -16.795858 -1.419318 0.431488 -23.117718 0.0 0.0 -1e-06 
0.0 0.0 0.0 0.0 -0.0 0.0 -0.810079 15.569454 0.904556 12.076907 -0.795025 85.85527 -7.165721 0.06953 -7.947756 -2.847943 -0.120578 -6.950604 -10.39784 0.58575 10.645993 8.663251 1.299617 -18.670275 -0.910179 -2.18816 -3.095691 -6.614055 -1.724693 6.673025 7.6e-05 -2.2e-05 6e-06 0.516921 -0.254616 -0.211451 1.380085 -4.007965 -10.67164 -0.351107 3.512411 -10.495393 13.430058 -15.634769 8.860785 -50.37746 -54.601112 5.173644 175.184982 -60.371605 -175.971359 31.854479 -2.83139 66.480858 -5.882106 9.861289 0.702588 -10.936875 -0.36058 7.156208 4e-06 8.774829 -2e-06 -16.299858 18.268311 6.889265 -1.844033 2.498506 -2.507277 -10.163603 4.678943 4.621109 -20.97603 -7e-06 7e-06 -21.226294 2.451696 -3.593997 1e-06 -5e-06 0.0 -1.362682 2.240798 -0.746325 -21.334921 0.584903 3.008325 -13.821218 -4e-06 5e-06 -23.887178 -0.249081 -0.839478 -60.617199 2.851389 -1.29544 -0.294025 1.679688 0.833257 -14.218215 0.093211 1.300582 -34.212067 -0.28757 0.967179 -20.033226 0.964535 1.212849 -0.0 0.0 0.0 -3.440389 0.788233 0.501655 -15.928192 -3.167316 2.999712 -6.338829 -1e-06 3e-06 -18.123457 3.648181 -4.90567 -4e-06 1e-06 -2e-06 -18.764208 13.222495 7.430676 33.372086 39.628357 -51.548779 173.661606 55.521351 175.279892 -18.347443 -22.008671 59.895576 2.243542 -5.255039 -3.18016 14.282896 -0.826593 6.952507 -2e-06 -12.690612 -2e-06 16.59786 -17.274529 2.295842 1.665667 -1.955922 -2.8783 4.7278 -4.170588 4.993925 11.020529 4e-06 -1e-06 12.109056 -3.735719 -2.866787 2e-06 0.0 -1e-06 1.291986 -1.928552 -1.498091 14.800132 0.567467 3.86561 14.242576 -1.341739 -6.660663 19.631973 0.143926 -0.648244 50.05088 -0.596157 -6.039924 0.353029 -1.511152 -0.03194 20.222799 3.684313 2.316632 18.787281 7e-06 -0.0 10.751631 -0.479867 1.397907 -2e-06 1e-06 0.0 3.273807 0.305948 -0.580112 21.486822 11.830385 2.26614 8.162929 2e-06 -0.0 18.399088 -3.798985 -4.940578 3e-06 0.0 -1e-06 9.501155 62.469852 -61.72979 -9.870807 -9.086117 73.03363 -15.038736 1.840132 8.553373 2.099012 -2.255072 -7.290775 -0.0 -0.0 2e-06 169.673096 -3.292661 173.555695 179.020889 17.872972 -170.990417 11.922152 35.901093 -16.003675 -1.465933 0.454786 -21.800903 -0.0 -1e-06 -2e-06 
0.0 0.0 0.0 0.0 -0.0 0.0 1.589548 15.458041 2.124036 10.760654 -1.592813 86.265617 -6.897357 -0.201779 -8.016317 -2.841831 -0.372078 -7.104583 -9.451506 0.021833 10.405831 11.115864 0.77921 -17.463493 -1.238096 -1.658857 -3.180535 -7.496951 -0.810577 4.330769 7.6e-05 -2.3e-05 5e-06 0.546551 -0.265032 -0.206681 1.362226 -4.016109 -10.753555 -0.271387 3.4983 -10.550142 13.834807 -15.356755 9.329957 -47.80648 -48.726799 -2.087331 176.514099 -55.353706 -176.808243 30.47513 -2.443383 60.934879 -5.882109 9.861289 0.702588 -10.936873 -0.360576 7.156207 0.0 8.774828 -2e-06 -16.16901 18.2181 6.919573 -1.844033 2.498505 -2.507278 -10.163604 4.678947 4.621109 -20.976032 -3e-06 0.0 -21.226297 2.451697 -3.594004 1e-06 -5e-06 -0.0 -1.362682 2.240799 -0.746326 -21.334921 0.58491 3.008323 -13.82122 -3e-06 1e-06 -23.88718 -0.24908 -0.839486 -60.439472 2.623239 -1.154935 -0.294025 1.679688 0.833257 -14.218212 0.093215 1.300579 -34.212059 -0.287566 0.967169 -20.033218 0.964536 1.212844 -0.0 2e-06 0.0 -3.44039 0.788233 0.501656 -15.928192 -3.16731 2.999708 -6.338827 -2e-06 1e-06 -18.123455 3.648183 -4.905673 -5e-06 -1e-06 -2e-06 -18.621183 10.905373 7.286289 35.800098 46.713085 -45.542683 173.305389 56.048557 174.825912 -18.17601 -20.94112 63.098763 2.243541 -5.255035 -3.180157 14.28289 -0.826595 6.952501 -2e-06 -12.690599 2e-06 16.409887 -17.344763 2.366657 1.665666 -1.95592 -2.878298 4.727799 -4.170585 4.993922 11.020523 3e-06 -0.0 12.109052 -3.735713 -2.866782 1e-06 0.0 -0.0 1.291986 -1.928549 -1.498089 14.800125 0.567469 3.865606 14.242569 -1.341735 -6.660655 19.631968 0.143926 -0.648245 50.184544 -0.666843 -6.108553 0.353029 -1.511152 -0.03194 20.222788 3.684307 2.316629 18.78727 3e-06 -2e-06 10.751625 -0.479869 1.397905 -0.0 0.0 -1e-06 3.273806 0.305947 -0.580111 21.486813 11.830368 2.266129 8.162928 1e-06 -2e-06 18.39908 -3.798982 -4.940574 3e-06 -1e-06 -0.0 11.562634 62.937817 -58.143852 -9.931949 -11.512393 68.557899 -18.351564 -5.32408 10.798852 2.206495 -2.030999 -9.406519 -0.0 0.0 2e-06 170.298752 -19.325642 173.56987 178.964844 38.278336 -170.853226 14.273116 39.029602 -14.62709 -1.432568 0.52114 -18.81761 -1e-06 -1e-06 -2e-06 
